#!OML:ASF E:\VariousWalksJay\Project 1\Capture day 1\Session 1\Actor2.ASF
:FULLY-SPECIFIED
:DEGREES
1075
root 3.59624 14.2859 -8.12703 340.428 -54.8762 -334.729
lowerback 24.7731 3.51882 -21.3926
upperback 14.7578 -1.20349 -8.81138
thorax 3.49014 -2.07631 1.89585
lowerneck -1.32581 1.76807 0.835848
upperneck -4.53636 2.31739 -0.915882
head -1.14777 1.1516 -0.432337
rclavicle 3.81667e-014 6.20208e-014
rhumerus -60.3879 11.7454 -118.147
rradius 56.9108
rwrist 23.838
rhand -7.54189 13.1422
rfingers 7.12502
rthumb 18.3496 -16.0124
lclavicle 3.81667e-014 6.20208e-014
lhumerus -66.0973 -29.2648 125.406
lradius 57.9439
lwrist 12.3329
lhand 26.9882 -18.2813
lfingers 7.12502
lthumb 50.9799 2.41128
rfemur -52.1391 -9.63499 12.3433
rtibia 88.3513
rfoot -38.097 -13.1973
rtoes -14.6638
lfemur -54.0139 1.44653 -38.5295
ltibia -3.49861e-014
lfoot -22.9826 28.9212
ltoes -10.2496
1076
root 3.62598 14.2075 -8.14623 339.762 -53.4042 -333.466
lowerback 25.987 3.62026 -22.0304
upperback 14.8779 -1.56559 -8.91477
thorax 3.2231 -2.2679 2.12089
lowerneck -1.25055 1.57841 0.705552
upperneck -5.05412 2.06328 -0.790089
head -1.32783 1.0232 -0.375847
rclavicle 1.43125e-014 2.38542e-014
rhumerus -60.5188 11.7996 -118.169
rradius 56.9174
rwrist 23.2509
rhand -7.30997 13.0887
rfingers 7.12502
rthumb 18.5727 -16.0447
lclavicle 1.43125e-014 2.38542e-014
lhumerus -66.293 -29.2607 125.786
lradius 57.671
lwrist 11.5218
lhand 26.7199 -18.1717
lfingers 7.12502
lthumb 50.7353 2.65623
rfemur -53.0116 -10.6522 10.9371
rtibia 89.4192
rfoot -38.3904 -13.1428
rtoes -14.7486
lfemur -54.2036 0.853516 -39.9814
ltibia 6.36111e-015
lfoot -22.9893 28.9985
ltoes -10.1236
1077
root 3.6537 14.1308 -8.16357 339.233 -52.0059 -332.353
lowerback 27.1498 3.70092 -22.5771
upperback 14.9803 -1.93159 -8.99869
thorax 2.96961 -2.45336 2.32861
lowerneck -1.18066 1.40301 0.581384
upperneck -5.55779 1.8275 -0.683145
head -1.50303 0.903995 -0.3249
rclavicle -3.97569e-014 -1.54257e-013
rhumerus -60.6552 11.8792 -118.205
rradius 56.9329
rwrist 22.6467
rhand -7.05339 12.9938
rfingers 7.12502
rthumb 18.8195 -16.1158
lclavicle -3.97569e-014 -1.54257e-013
lhumerus -66.4863 -29.2587 126.179
lradius 57.3559
lwrist 10.5892
lhand 26.3644 -18.1768
lfingers 7.12502
lthumb 50.4108 2.82751
rfemur -53.8292 -11.5799 9.60853
rtibia 90.4199
rfoot -38.6492 -13.1333
rtoes -14.8094
lfemur -54.3432 0.342715 -41.3344
ltibia -1.27222e-014
lfoot -22.9964 29.1655
ltoes -9.91143
1078
root 3.67954 14.0559 -8.1787 338.759 -50.6703 -331.3
lowerback 28.2497 3.77064 -23.084
upperback 15.0682 -2.29498 -9.07408
thorax 2.73849 -2.6338 2.52912
lowerneck -1.11619 1.24169 0.46263
upperneck -6.0376 1.61005 -0.588142
head -1.67032 0.79403 -0.277348
rclavicle 9.38264e-014 -9.54166e-015
rhumerus -60.7936 11.9891 -118.258
rradius 56.9664
rwrist 22.0279
rhand -6.75513 12.8255
rfingers 7.12502
rthumb 19.1063 -16.256
lclavicle 9.38264e-014 -9.54166e-015
lhumerus -66.6599 -29.2548 126.557
lradius 57.0282
lwrist 9.60846
lhand 25.9718 -18.2479
lfingers 7.12502
lthumb 50.0518 2.94752
rfemur -54.5976 -12.4305 8.30332
rtibia 91.3783
rfoot -38.8862 -13.1589
rtoes -14.8562
lfemur -54.4349 -0.0859249 -42.6401
ltibia -3.18055e-015
lfoot -22.9985 29.3703
ltoes -9.71273
1079
root 3.7034 13.9825 -8.19125 338.287 -49.377 -330.23
lowerback 29.2738 3.83766 -23.6029
upperback 15.1396 -2.65402 -9.15207
thorax 2.53515 -2.81163 2.73236
lowerneck -1.05087 1.09442 0.352564
upperneck -6.49165 1.41151 -0.495241
head -1.83017 0.693419 -0.230921
rclavicle 4.13472e-014 1.63799e-013
rhumerus -60.9328 12.1285 -118.328
rradius 57.0284
rwrist 21.4122
rhand -6.41837 12.5784
rfingers 7.12502
rthumb 19.4301 -16.4708
lclavicle 4.13472e-014 1.63799e-013
lhumerus -66.8057 -29.2476 126.896
lradius 56.728
lwrist 8.68823
lhand 25.6099 -18.3078
lfingers 7.12502
lthumb 49.7205 3.06045
rfemur -55.3367 -13.2243 6.96647
rtibia 92.3048
rfoot -39.0978 -13.2003
rtoes -14.8845
lfemur -54.4926 -0.441881 -43.9508
ltibia -1.59028e-014
lfoot -22.9988 29.5636
ltoes -9.57539
1080
root 3.72492 13.9093 -8.20086 337.731 -48.0481 -329.048
lowerback 30.3523 3.94647 -24.2636
upperback 15.1066 -3.04921 -9.17542
thorax 2.35283 -3.00151 2.96146
lowerneck -0.978436 0.960915 0.258447
upperneck -6.91788 1.23213 -0.397605
head -1.98292 0.601991 -0.184896
rclavicle 3.65764e-014 -1.59028e-014
rhumerus -61.0737 12.2981 -118.413
rradius 57.1223
rwrist 20.8407
rhand -6.09554 12.2899
rfingers 7.12502
rthumb 19.7405 -16.7277
lclavicle 3.65764e-014 -1.59028e-014
lhumerus -66.9279 -29.2365 127.193
lradius 56.4668
lwrist 7.82759
lhand 25.2787 -18.3509
lfingers 7.12502
lthumb 49.4169 3.17274
rfemur -56.0259 -14.034 5.48705
rtibia 93.2135
rfoot -39.2886 -13.2253
rtoes -14.8867
lfemur -54.4876 -0.765554 -45.3566
ltibia 3.49861e-014
lfoot -23.0157 29.7057
ltoes -9.531
1081
root 3.74464 13.8374 -8.20887 337.216 -46.7636 -327.901
lowerback 31.263 4.02276 -24.8711
upperback 15.1487 -3.41278 -9.26333
thorax 2.19548 -3.18374 3.19525
lowerneck -0.888535 0.8405 0.187274
upperneck -7.31863 1.0713 -0.29566
head -2.13108 0.519231 -0.140776
rclavicle 6.52014e-014 5.725e-014
rhumerus -61.2044 12.4747 -118.496
rradius 57.2364
rwrist 20.3308
rhand -5.77117 11.9907
rfingers 7.12502
rthumb 20.0523 -16.9946
lclavicle 6.52014e-014 5.725e-014
lhumerus -67.0397 -29.2302 127.461
lradius 56.2458
lwrist 7.03316
lhand 24.9775 -18.3787
lfingers 7.12502
lthumb 49.1405 3.28394
rfemur -56.6844 -14.7865 4.01628
rtibia 94.0865
rfoot -39.4528 -13.2795
rtoes -14.8783
lfemur -54.4634 -1.02014 -46.7324
ltibia -3.18055e-015
lfoot -23.0238 29.8012
ltoes -9.63203
1082
root 3.76317 13.7673 -8.21553 336.779 -45.5512 -326.831
lowerback 32.071 4.09443 -25.4523
upperback 15.177 -3.75213 -9.34254
thorax 2.0658 -3.35293 3.42093
lowerneck -0.781968 0.735727 0.139497
upperneck -7.6887 0.933003 -0.18632
head -2.27277 0.446968 -0.0978287
rclavicle -1.59028e-013 -1.59028e-015
rhumerus -61.3302 12.6609 -118.577
rradius 57.3735
rwrist 19.8991
rhand -5.47109 11.7065
rfingers 7.12502
rthumb 20.3407 -17.2483
lclavicle -1.59028e-013 -1.59028e-015
lhumerus -67.1549 -29.2323 127.709
lradius 56.0721
lwrist 6.31218
lhand 24.7035 -18.3897
lfingers 7.12502
lthumb 48.8888 3.39758
rfemur -57.3237 -15.4619 2.60621
rtibia 94.9145
rfoot -39.5893 -13.3588
rtoes -14.8168
lfemur -54.4427 -1.19622 -48.0332
ltibia -2.54444e-014
lfoot -22.9979 29.8611
ltoes -9.86176
1083
root 3.78152 13.7009 -8.22205 336.523 -44.4987 -325.973
lowerback 32.7233 4.14668 -25.9133
upperback 15.1976 -4.03372 -9.39908
thorax 1.96784 -3.49039 3.60816
lowerneck -0.666462 0.647462 0.12395
upperneck -8.01832 0.818287 -0.0781096
head -2.40325 0.385647 -0.0603472
rclavicle 3.33958e-014 4.13472e-014
rhumerus -61.4399 12.8406 -118.648
rradius 57.5117
rwrist 19.5692
rhand -5.23257 11.4994
rfingers 7.12502
rthumb 20.5699 -17.4308
lclavicle 3.33958e-014 4.13472e-014
lhumerus -67.2727 -29.2511 127.94
lradius 55.9303
lwrist 5.66994
lhand 24.4509 -18.3876
lfingers 7.12502
lthumb 48.6565 3.51298
rfemur -57.9676 -15.9883 1.41883
rtibia 95.6682
rfoot -39.6877 -13.5099
rtoes -14.703
lfemur -54.4728 -1.26284 -49.1263
ltibia -6.99722e-014
lfoot -22.9371 29.8949
ltoes -10.1924
1084
root 3.80061 13.6403 -8.22926 336.508 -43.67 -325.407
lowerback 33.1799 4.16797 -26.1943
upperback 15.2133 -4.23309 -9.42281
thorax 1.9014 -3.58324 3.73975
lowerneck -0.547544 0.572921 0.132032
upperneck -8.29696 0.723601 0.0303346
head -2.51792 0.33369 -0.0265357
rclavicle 1.06549e-013 -3.18055e-015
rhumerus -61.5298 13.0023 -118.698
rradius 57.6465
rwrist 19.3298
rhand -5.01102 11.3729
rfingers 7.12502
rthumb 20.7828 -17.5341
lclavicle 1.06549e-013 -3.18055e-015
lhumerus -67.3961 -29.288 128.164
lradius 55.8153
lwrist 5.11147
lhand 24.2212 -18.3725
lfingers 7.12502
lthumb 48.4452 3.62989
rfemur -58.6367 -16.3191 0.56674
rtibia 96.3283
rfoot -39.7436 -13.7438
rtoes -14.4957
lfemur -54.5899 -1.20166 -49.9216
ltibia 6.99722e-014
lfoot -22.8212 29.9238
ltoes -10.541
1085
root 3.82183 13.5881 -8.24004 336.955 -43.2335 -325.41
lowerback 33.3431 4.12004 -26.1057
upperback 15.2299 -4.29468 -9.37728
thorax 1.8676 -3.59882 3.76851
lowerneck -0.438372 0.511419 0.150405
upperneck -8.51474 0.648198 0.144394
head -2.61096 0.291014 0.00746853
rclavicle 2.22639e-014 -1.11319e-014
rhumerus -61.5923 13.1433 -118.723
rradius 57.7657
rwrist 19.1203
rhand -4.77376 11.3593
rfingers 7.12502
rthumb 21.0108 -17.5226
lclavicle 2.22639e-014 -1.11319e-014
lhumerus -67.5092 -29.3392 128.371
lradius 55.7163
lwrist 4.63854
lhand 24.0163 -18.3465
lfingers 7.12502
lthumb 48.2565 3.74574
rfemur -59.3991 -16.3122 0.385559
rtibia 96.8524
rfoot -39.75 -14.1623
rtoes -14.1874
lfemur -54.9002 -0.964013 -50.1494
ltibia 2.8625e-014
lfoot -22.6299 29.9478
ltoes -10.9038
1086
root 3.84432 13.5443 -8.25231 337.681 -43.0681 -325.786
lowerback 33.2904 4.03106 -25.7798
upperback 15.2492 -4.25473 -9.28984
thorax 1.86278 -3.56016 3.72452
lowerneck -0.343228 0.459871 0.167831
upperneck -8.67085 0.587541 0.263833
head -2.68109 0.255759 0.0434492
rclavicle -7.95139e-015 6.36111e-015
rhumerus -61.6342 13.27 -118.733
rradius 57.8621
rwrist 18.9415
rhand -4.59027 11.4484
rfingers 7.12502
rthumb 21.187 -17.4138
lclavicle -7.95139e-015 6.36111e-015
lhumerus -67.6031 -29.4048 128.557
lradius 55.628
lwrist 4.2503
lhand 23.841 -18.3107
lfingers 7.12502
lthumb 48.095 3.85763
rfemur -60.1897 -16.0681 0.645167
rtibia 97.2481
rfoot -39.7078 -14.6908
rtoes -13.7593
lfemur -55.3212 -0.585538 -49.9969
ltibia 2.54444e-014
lfoot -22.4016 29.9455
ltoes -11.2485
1087
root 3.86975 13.5125 -8.27259 339.257 -43.4982 -327.215
lowerback 32.8455 3.82738 -24.7776
upperback 15.2691 -4.00473 -9.05966
thorax 1.87559 -3.39567 3.51108
lowerneck -0.263322 0.413647 0.179556
upperneck -8.77441 0.53459 0.383324
head -2.73092 0.224726 0.0805392
rclavicle -9.06458e-014 6.83819e-014
rhumerus -61.6472 13.3746 -118.72
rradius 57.9253
rwrist 18.833
rhand -4.47282 11.5984
rfingers 7.12502
rthumb 21.2999 -17.2512
lclavicle -9.06458e-014 6.83819e-014
lhumerus -67.6626 -29.4826 128.714
lradius 55.5462
lwrist 3.93934
lhand 23.7014 -18.2635
lfingers 7.12502
lthumb 47.9663 3.96504
rfemur -61.145 -15.2761 2.07395
rtibia 97.4574
rfoot -39.6309 -15.5367
rtoes -13.1369
lfemur -56.0871 0.03531 -48.8691
ltibia -2.8625e-014
lfoot -22.0462 29.9311
ltoes -11.6244
1088
root 3.89502 13.4874 -8.29694 341.33 -44.1728 -329.305
lowerback 32.2334 3.5733 -23.3986
upperback 15.2861 -3.65898 -8.73667
thorax 1.89397 -3.16899 3.20729
lowerneck -0.191002 0.369497 0.183391
upperneck -8.84465 0.484318 0.498544
head -2.76821 0.195543 0.117733
rclavicle 1.74931e-014 -4.92986e-014
rhumerus -61.6251 13.4478 -118.681
rradius 57.9478
rwrist 18.8255
rhand -4.43999 11.7903
rfingers 7.12502
rthumb 21.3314 -17.0557
lclavicle 1.74931e-014 -4.92986e-014
lhumerus -67.6776 -29.5711 128.835
lradius 55.4707
lwrist 3.69794
lhand 23.6025 -18.2035
lfingers 7.12502
lthumb 47.8751 4.06742
rfemur -62.1039 -14.201 4.11411
rtibia 97.5346
rfoot -39.5348 -16.5534
rtoes -12.3863
lfemur -56.9919 0.796021 -47.2048
ltibia 1.90833e-014
lfoot -21.6376 29.8812
ltoes -12.0042
1089
root 3.91842 13.4655 -8.32444 343.841 -44.9645 -331.986
lowerback 31.442 3.26241 -21.6721
upperback 15.3875 -3.23578 -8.38605
thorax 1.91126 -2.89746 2.84047
lowerneck -0.119407 0.325062 0.175231
upperneck -8.9006 0.433059 0.606956
head -2.80057 0.166496 0.154954
rclavicle -7.15625e-014 1.66979e-014
rhumerus -61.58 13.4957 -118.616
rradius 57.957
rwrist 18.9072
rhand -4.45681 11.9548
rfingers 7.12502
rthumb 21.3152 -16.8929
lclavicle -7.15625e-014 1.66979e-014
lhumerus -67.6487 -29.6689 128.922
lradius 55.4036
lwrist 3.51805
lhand 23.5437 -18.1309
lfingers 7.12502
lthumb 47.8209 4.16504
rfemur -63.0204 -12.9204 6.61956
rtibia 97.5059
rfoot -39.4316 -17.6999
rtoes -11.532
lfemur -57.9797 1.66929 -45.1195
ltibia 3.18055e-014
lfoot -21.1761 29.8104
ltoes -12.3765
